<?xml version="1.0" encoding="iso-8859-1"?>
<!-- Uploaded to: SVG Repo, www.svgrepo.com, Generator: SVG Repo Mixer Tools -->
<svg fill="#000000" height="800px" width="800px" version="1.1" id="Capa_1" xmlns="http://www.w3.org/2000/svg" xmlns:xlink="http://www.w3.org/1999/xlink" 
	 viewBox="0 0 297 297" xml:space="preserve">
<g>
	<path d="M247.5,20c0-11.046-8.954-20-20-20h-158c-11.046,0-20,8.954-20,20v257c0,11.046,8.954,20,20,20h158
		c11.046,0,20-8.954,20-20V20z M133.897,229.895c-1.515,7.759-6.397,14.1-14.397,16.837V255h3.333c4.418,0,8,3.582,8,8s-3.582,8-8,8
		h-21c-4.418,0-8-3.582-8-8s3.582-8,8-8h1.667v-8.264c-7-2.734-12.562-9.078-14.076-16.843c-3.827-0.598-6.675-3.9-6.675-7.894
		c0-4.418,3.665-8,8.083-8h1.948c2.627-3.932,6.45-6.991,10.962-8.641c-0.188-0.682-0.298-1.398-0.298-2.14
		c0-4.417,3.583-7.998,8-7.998c4.419,0,8,3.581,8,7.998c0,0.742-0.109,1.458-0.298,2.14c4.513,1.649,8.336,4.709,10.963,8.641h2.723
		c4.418,0,7.917,3.582,7.917,8C140.75,225.998,137.729,229.303,133.897,229.895z M133.876,144.898
		c-1.545,7.708-6.376,13.998-14.376,16.723V170h3.333c4.418,0,8,3.582,8,8s-3.582,8-8,8h-21c-4.418,0-8-3.582-8-8s3.582-8,8-8h1.667
		v-8.375c-7-2.721-12.51-9.016-14.055-16.727c-3.837-0.59-6.695-3.896-6.695-7.898c0-4.418,3.665-8,8.083-8h1.877
		c2.628-3.984,6.479-7.087,11.033-8.751c-0.188-0.682-0.298-1.397-0.298-2.14c0-4.418,3.583-7.998,8-7.998c4.419,0,8,3.58,8,7.998
		c0,0.742-0.109,1.458-0.298,2.14c4.554,1.664,8.405,4.767,11.034,8.751h2.651c4.418,0,7.917,3.582,7.917,8
		C140.75,141.006,137.718,144.314,133.876,144.898z M133.897,59.896c-1.515,7.759-6.397,14.1-14.397,16.837V85h3.333
		c4.418,0,8,3.582,8,8s-3.582,8-8,8h-21c-4.418,0-8-3.582-8-8s3.582-8,8-8h1.667v-8.264c-7-2.734-12.562-9.078-14.076-16.843
		c-3.827-0.598-6.675-3.9-6.675-7.894c0-4.418,3.665-8,8.083-8h1.948c2.627-3.932,6.45-6.991,10.962-8.641
		c-0.188-0.682-0.298-1.398-0.298-2.14c0-4.417,3.583-7.998,8-7.998c4.419,0,8,3.581,8,7.998c0,0.742-0.109,1.458-0.298,2.14
		c4.513,1.649,8.336,4.709,10.963,8.641h2.723c4.418,0,7.917,3.582,7.917,8C140.75,55.998,137.729,59.303,133.897,59.896z
		 M207.897,229.895c-1.515,7.759-6.397,14.1-14.397,16.837V255h3.333c4.418,0,8,3.582,8,8s-3.582,8-8,8h-21c-4.418,0-8-3.582-8-8
		s3.582-8,8-8h1.667v-8.264c-7-2.734-12.562-9.078-14.076-16.843c-3.827-0.598-6.675-3.9-6.675-7.894c0-4.418,3.665-8,8.083-8h1.948
		c2.627-3.932,6.45-6.991,10.962-8.641c-0.188-0.682-0.298-1.398-0.298-2.14c0-4.417,3.583-7.998,8-7.998c4.419,0,8,3.581,8,7.998
		c0,0.742-0.109,1.458-0.298,2.14c4.513,1.649,8.336,4.709,10.963,8.641h2.723c4.418,0,7.917,3.582,7.917,8
		C214.75,225.998,211.729,229.303,207.897,229.895z M207.876,144.898c-1.545,7.708-6.376,13.998-14.376,16.723V170h3.333
		c4.418,0,8,3.582,8,8s-3.582,8-8,8h-21c-4.418,0-8-3.582-8-8s3.582-8,8-8h1.667v-8.375c-7-2.721-12.51-9.016-14.055-16.727
		c-3.837-0.59-6.695-3.896-6.695-7.898c0-4.418,3.665-8,8.083-8h1.877c2.628-3.984,6.479-7.087,11.033-8.751
		c-0.188-0.682-0.298-1.397-0.298-2.14c0-4.418,3.583-7.998,8-7.998c4.419,0,8,3.58,8,7.998c0,0.742-0.109,1.458-0.298,2.14
		c4.554,1.664,8.405,4.767,11.034,8.751h2.651c4.418,0,7.917,3.582,7.917,8C214.75,141.006,211.718,144.314,207.876,144.898z
		 M207.897,59.896c-1.515,7.759-6.397,14.1-14.397,16.837V85h3.333c4.418,0,8,3.582,8,8s-3.582,8-8,8h-21c-4.418,0-8-3.582-8-8
		s3.582-8,8-8h1.667v-8.264c-7-2.734-12.562-9.078-14.076-16.843c-3.827-0.598-6.675-3.9-6.675-7.894c0-4.418,3.665-8,8.083-8h1.948
		c2.627-3.932,6.45-6.991,10.962-8.641c-0.188-0.682-0.298-1.398-0.298-2.14c0-4.417,3.583-7.998,8-7.998c4.419,0,8,3.581,8,7.998
		c0,0.742-0.109,1.458-0.298,2.14c4.513,1.649,8.336,4.709,10.963,8.641h2.723c4.418,0,7.917,3.582,7.917,8
		C214.75,55.998,211.729,59.303,207.897,59.896z"/>
</g>
</svg>